HIERARCHY
ROOT Hips
{
	OFFSET 0.00000 0.00000 0.00000
	CHANNELS 6 Xposition Yposition Zposition Zrotation Yrotation Xrotation 
	JOINT LHipJoint
	{
		OFFSET 0 0 0
		CHANNELS 3 Zrotation Yrotation Xrotation
		JOINT LeftHip
		{
			OFFSET 1.48416 -1.82041 0.59464
			CHANNELS 3 Zrotation Yrotation Xrotation
			JOINT LeftKnee
			{
				OFFSET 2.43280 -6.68407 0.00000
				CHANNELS 3 Zrotation Yrotation Xrotation
				JOINT LeftAnkle
				{
					OFFSET 2.68325 -7.37216 0.00000
					CHANNELS 3 Zrotation Yrotation Xrotation
					JOINT LeftToe
					{
						OFFSET 0.15365 -0.42214 1.91990
						CHANNELS 3 Zrotation Yrotation Xrotation
						End Site
						{
							OFFSET 0.00000 -0.00000 0.99320
						}
					}
				}
			}
		}
	}
	JOINT RHipJoint
	{
		OFFSET 0 0 0
		CHANNELS 3 Zrotation Yrotation Xrotation
		JOINT RightHip
		{
			OFFSET -1.70852 -1.82040 0.59464
			CHANNELS 3 Zrotation Yrotation Xrotation
			JOINT RightKnee
			{
				OFFSET -2.50396 -6.87957 0.00000
				CHANNELS 3 Zrotation Yrotation Xrotation
				JOINT RightAnkle
				{
					OFFSET -2.67204 -7.34139 0.00000
					CHANNELS 3 Zrotation Yrotation Xrotation
					JOINT RightToe
					{
						OFFSET -0.17346 -0.47657 2.02009
						CHANNELS 3 Zrotation Yrotation Xrotation
						End Site
						{
							OFFSET -0.00000 -0.00000 1.04609
						}
					}
				}
			}
		}
	}
	JOINT lowerback
	{
		OFFSET 0 0 0
		CHANNELS 3 Zrotation Yrotation Xrotation
		JOINT Chest
		{
			OFFSET -0.01022 1.99636 -0.30653
			CHANNELS 3 Zrotation Yrotation Xrotation
			JOINT Chest2
			{
				OFFSET -0.01683 2.01212 0.04808
				CHANNELS 3 Zrotation Yrotation Xrotation
				JOINT lowerneck
				{
					OFFSET 0 0 0
					CHANNELS 3 Zrotation Yrotation Xrotation
					JOINT Neck
					{
						OFFSET -0.03080 1.91178 0.03911
						CHANNELS 3 Zrotation Yrotation Xrotation
						JOINT Head
						{
							OFFSET 0.10605 1.89839 -0.23433
							CHANNELS 3 Zrotation Yrotation Xrotation
							End Site
							{
								OFFSET 0.03474 1.92469 -0.08609
							}
						}
					}
				}
				JOINT LeftCollar
				{
					OFFSET 0 0 0
					CHANNELS 3 Zrotation Yrotation Xrotation
					JOINT LeftShoulder
					{
						OFFSET 3.78977 1.27972 -0.24661
CHANNELS 3 Zrotation Xrotation Yrotation
						JOINT LeftElbow
						{
OFFSET 0 -5.641470 -0.000000
CHANNELS 3 Zrotation Xrotation Yrotation
							JOINT LeftWrist
							{
OFFSET 0 -2.864440 -0.000000
CHANNELS 3 Zrotation Xrotation Yrotation
								JOINT lhand
								{
									OFFSET 0 0 0
CHANNELS 3 Zrotation Xrotation Yrotation
									JOINT LFingers
									{
OFFSET 0 -0.722120 -0.000000
CHANNELS 3 Zrotation Xrotation Yrotation
										End Site
										{
OFFSET 0 -0.582190 -0.000000
										}
									}
								}
								JOINT LThumb
								{
OFFSET 0 0.000000 0.000000
CHANNELS 3 Zrotation Xrotation Yrotation
									End Site
									{
OFFSET 0 -0.591080 0.591080
									}
								}
							}
						}
					}
				}
				JOINT RightCollar
				{
					OFFSET 0 0 0
					CHANNELS 3 Zrotation Yrotation Xrotation
					JOINT RightShoulder
					{
						OFFSET -3.41176 1.18605 -0.57927
CHANNELS 3 Zrotation Xrotation Yrotation
						JOINT RightElbow
						{
OFFSET 0 -5.447290 -0.000000
CHANNELS 3 Zrotation Xrotation Yrotation
							JOINT RightWrist
							{
OFFSET 0 -3.088210 -0.000000
CHANNELS 3 Zrotation Xrotation Yrotation
								JOINT rhand
								{
									OFFSET 0 0 0
CHANNELS 3 Zrotation Xrotation Yrotation
									JOINT RFingers
									{
OFFSET 0 -0.821050 -0.000000
CHANNELS 3 Zrotation Xrotation Yrotation
										End Site
										{
OFFSET 0 -0.661950 -0.000000
										}
									}
								}
								JOINT RThumb
								{
OFFSET 0 0.000000 0.000000
CHANNELS 3 Zrotation Xrotation Yrotation
									End Site
									{
OFFSET 0 -0.672060 0.672060
									}
								}
							}
						}
					}
				}
			}
		}
	}
}
MOTION
Frames: 12
Frame Time: 0.008333333333333333
3.346700 17.773300 0.403700 -33.908800 88.801700 -33.538400 0.000000 0.000000 0.000000 0.000000 0.000000 0.000000 0.000000 0.000000 0.000000 0.000000 0.000000 0.000000 0.000000 0.000000 0.000000 0.000000 0.000000 0.000000 19.620100 1.199600 0.755100 -0.579100 -4.872800 13.546200 -0.753900 4.362200 -15.512000 -0.099700 2.036300 -5.606000 3.170500 0.259000 1.499600 -0.697700 0.390300 0.610000 -2.499800 0.201500 -0.189100 -5.625100 -5.316600 -1.873300 8.526800 -7.138200 1.885700 3.611900 -3.491000 1.503900 -0.000000 -0.000000 0.000000 6.459100 3.191800 -36.478500 15.201000 -24.425400 3.308600 8.885900 -28.795400 -9.310000 0.000000 0.000000 0.000000 -7.125000 0.000000 0.000000 -15.566900 38.937500 -2.393500 -0.000000 -0.000000 0.000000 -1.745200 4.963300 19.655100 -15.373000 -24.663100 -3.380100 -3.868500 13.424400 -10.016500 0.000000 0.000000 0.000000 7.125000 0.000000 -0.000000 16.339200 20.113700 10.139400
3.346885 17.775855 0.408810 -35.594605 88.733580 -35.141756 0.000000 0.000000 0.000000 0.000000 0.000000 0.000000 0.000000 0.000000 0.000000 0.000000 0.000000 0.000000 0.000000 0.000000 0.000000 0.000000 0.000000 0.000000 19.731767 1.346781 0.750199 -0.570925 -4.839200 13.450490 -0.753910 4.193169 -15.524581 -0.113579 2.173195 -5.984616 3.183250 0.268565 1.427010 -0.687651 0.401139 0.559871 -2.496588 0.205945 -0.199109 -5.564233 -5.307961 -1.774145 8.458562 -7.128101 1.849693 3.579796 -3.489020 1.467422 0.000000 0.000000 0.000000 6.409955 3.147632 -36.274305 15.158679 -24.366625 3.291102 8.848589 -28.658408 -9.305164 0.000000 0.000000 0.000000 -7.125000 0.000000 0.000000 -15.596988 38.929874 -2.401388 0.000000 0.000000 0.000000 -1.733228 4.890737 19.672589 -15.338531 -24.615596 -3.365680 -4.004652 13.331345 -10.263996 0.000000 0.000000 0.000000 7.125000 0.000000 0.000000 16.221990 19.872523 10.152366
3.350690 17.775500 0.413030 -40.980551 88.647213 -40.546542 0.000000 0.000000 0.000000 0.000000 0.000000 0.000000 0.000000 0.000000 0.000000 0.000000 0.000000 0.000000 0.000000 0.000000 0.000000 0.000000 0.000000 0.000000 19.928121 1.331108 0.945715 -0.549721 -4.749793 13.196219 -0.748840 4.037570 -15.483946 -0.139726 2.408243 -6.635248 3.325586 0.274902 1.395772 -0.660041 0.410302 0.586260 -2.548089 0.211891 -0.153021 -5.512620 -5.287192 -1.900977 8.383276 -7.098902 1.919014 3.541014 -3.471641 1.504448 0.000000 0.000000 0.000000 6.459285 3.109291 -36.333108 15.283065 -24.538973 3.342618 8.704451 -28.810918 -9.510271 0.000000 0.000000 0.000000 -7.125000 0.000000 0.000000 -15.767897 39.118251 -2.353903 0.000000 0.000000 0.000000 -1.702782 4.783549 19.710497 -15.384486 -24.678945 -3.384868 -4.560854 13.106882 -10.472869 0.000000 0.000000 0.000000 7.125000 0.000000 0.000000 15.819685 19.657152 9.959566
3.352180 17.777735 0.420154 -40.325362 88.626691 -39.840332 0.000000 0.000000 0.000000 0.000000 0.000000 0.000000 0.000000 0.000000 0.000000 0.000000 0.000000 0.000000 0.000000 0.000000 0.000000 0.000000 0.000000 0.000000 19.965397 1.503925 0.916230 -0.553865 -4.767214 13.245847 -0.758269 3.977727 -15.589259 -0.127576 2.302651 -6.342955 3.293500 0.280032 1.403788 -0.687214 0.417407 0.514710 -2.558393 0.212911 -0.230493 -5.603617 -5.263417 -1.945589 8.532821 -7.074512 2.060102 3.609133 -3.455161 1.568140 0.000000 0.000000 0.000000 6.524619 3.184339 -36.645275 15.372972 -24.663105 3.380059 9.134409 -28.694708 -9.519351 0.000000 0.000000 0.000000 -7.125000 0.000000 0.000000 -15.408608 39.160326 -2.280623 0.000000 0.000000 0.000000 -1.625678 4.783312 19.552462 -15.401536 -24.702503 -3.391933 -4.608154 13.233072 -10.456978 0.000000 0.000000 0.000000 7.125000 0.000000 0.000000 15.788473 19.671202 9.933173
3.355000 17.773861 0.424539 -36.986580 88.685595 -36.547152 0.000000 0.000000 0.000000 0.000000 0.000000 0.000000 0.000000 0.000000 0.000000 0.000000 0.000000 0.000000 0.000000 0.000000 0.000000 0.000000 0.000000 0.000000 19.878088 1.550677 0.984136 -0.556281 -4.777606 13.275336 -0.763979 4.072202 -15.640934 -0.089806 1.931301 -5.315809 3.152187 0.253959 1.483386 -0.739368 0.383678 0.451403 -2.532832 0.193059 -0.342950 -5.535087 -5.227517 -1.907982 8.553755 -7.031395 2.094517 3.605601 -3.432759 1.567189 0.000000 0.000000 0.000000 6.592531 3.189071 -36.588025 15.385010 -24.679674 3.385104 9.116118 -28.528774 -9.522736 0.000000 0.000000 0.000000 -7.125000 0.000000 0.000000 -15.424846 39.162195 -2.282495 0.000000 0.000000 0.000000 -1.554158 4.868299 19.589508 -15.400605 -24.701207 -3.391602 -3.983442 13.408540 -9.827737 0.000000 0.000000 0.000000 7.125000 0.000000 0.000000 16.277661 20.292722 10.029332
3.355899 17.773825 0.424400 -41.244140 88.543584 -40.779170 0.000000 0.000000 0.000000 0.000000 0.000000 0.000000 0.000000 0.000000 0.000000 0.000000 0.000000 0.000000 0.000000 0.000000 0.000000 0.000000 0.000000 0.000000 20.066556 1.539130 1.053418 -0.541000 -4.712502 13.090454 -0.753874 3.950699 -15.544464 -0.101277 2.052193 -5.649899 3.331582 0.251297 1.457809 -0.694528 0.382346 0.400502 -2.587518 0.190873 -0.379978 -5.496172 -5.202020 -1.890849 8.488096 -6.999969 2.145859 3.576538 -3.417548 1.573391 0.000000 0.000000 0.000000 6.528347 3.087291 -36.314782 15.315948 -24.584398 3.356299 9.182016 -28.365554 -9.096362 0.000000 0.000000 0.000000 -7.125000 0.000000 0.000000 -15.267580 38.751561 -2.416681 0.000000 0.000000 0.000000 -1.560304 4.940669 19.603106 -15.426472 -24.736795 -3.402349 -3.930883 13.559671 -9.799752 0.000000 0.000000 0.000000 7.125000 0.000000 0.000000 16.316692 20.320773 10.044605
3.357830 17.772979 0.425399 -38.488679 88.619876 -38.083489 0.000000 0.000000 0.000000 0.000000 0.000000 0.000000 0.000000 0.000000 0.000000 0.000000 0.000000 0.000000 0.000000 0.000000 0.000000 0.000000 0.000000 0.000000 19.961953 1.547234 1.065344 -0.550699 -4.753936 13.207928 -0.757139 3.958195 -15.579163 -0.112775 2.164737 -5.961119 3.261491 0.281579 1.500760 -0.734656 0.423565 0.323423 -2.590776 0.208503 -0.480508 -5.530786 -5.192576 -1.735698 8.520645 -6.995034 2.190797 3.598348 -3.417647 1.562971 0.000000 0.000000 0.000000 6.552441 3.123145 -36.485714 15.306174 -24.570952 3.352258 9.063746 -28.347583 -9.301405 0.000000 0.000000 0.000000 -7.125000 0.000000 0.000000 -15.415567 38.942585 -2.366849 0.000000 0.000000 0.000000 -1.553887 5.116520 19.655055 -15.414739 -24.720705 -3.397495 -4.022974 13.324868 -9.769813 0.000000 0.000000 0.000000 7.125000 0.000000 0.000000 16.255857 20.347517 9.993699
3.356840 17.772720 0.423945 -39.958972 88.587294 -39.581242 0.000000 0.000000 0.000000 0.000000 0.000000 0.000000 0.000000 0.000000 0.000000 0.000000 0.000000 0.000000 0.000000 0.000000 0.000000 0.000000 0.000000 0.000000 20.008088 1.479572 1.101942 -0.546635 -4.736540 13.158716 -0.757457 4.017561 -15.576689 -0.108367 2.121772 -5.842420 3.349765 0.299790 1.477678 -0.726191 0.448470 0.325612 -2.631887 0.221205 -0.462982 -5.496416 -5.244414 -1.797096 8.468364 -7.067092 2.281443 3.568959 -3.451595 1.605112 0.000000 0.000000 0.000000 6.539569 3.150272 -36.576602 15.342638 -24.621247 3.367374 8.978348 -28.315661 -9.395096 0.000000 0.000000 0.000000 -7.125000 0.000000 0.000000 -15.509756 39.027294 -2.348802 0.000000 0.000000 0.000000 -1.555989 5.112258 19.584285 -15.371971 -24.661738 -3.379656 -4.547850 13.213327 -10.150330 0.000000 0.000000 0.000000 7.125000 0.000000 0.000000 15.857328 19.968556 9.869515
3.353840 17.774499 0.425420 -40.882627 88.556749 -40.499232 0.000000 0.000000 0.000000 0.000000 0.000000 0.000000 0.000000 0.000000 0.000000 0.000000 0.000000 0.000000 0.000000 0.000000 0.000000 0.000000 0.000000 0.000000 20.066152 1.540802 1.175358 -0.536341 -4.692405 13.033173 -0.752563 3.880442 -15.537877 -0.111524 2.152955 -5.928536 3.330267 0.331040 1.305637 -0.680735 0.483179 0.412482 -2.573090 0.243320 -0.275505 -5.538415 -5.288404 -1.775365 8.572009 -7.119165 2.117537 3.612806 -3.478683 1.558771 0.000000 0.000000 0.000000 6.516843 3.003837 -36.812977 15.314080 -24.581767 3.355488 8.929858 -28.537970 -9.281507 0.000000 0.000000 0.000000 -7.125000 0.000000 0.000000 -15.523121 38.913027 -2.395974 0.000000 0.000000 0.000000 -1.544068 5.008409 19.340637 -15.361926 -24.647841 -3.375394 -4.703093 13.276988 -10.433303 0.000000 0.000000 0.000000 7.125000 0.000000 0.000000 15.725115 19.691459 9.882585
3.350461 17.773231 0.425025 -42.713485 88.493070 -42.339086 0.000000 0.000000 0.000000 0.000000 0.000000 0.000000 0.000000 0.000000 0.000000 0.000000 0.000000 0.000000 0.000000 0.000000 0.000000 0.000000 0.000000 0.000000 20.146364 1.537222 1.178176 -0.534300 -4.683690 13.008625 -0.752280 3.889588 -15.534051 -0.109024 2.129176 -5.862803 3.399847 0.322499 1.302625 -0.642920 0.472777 0.410181 -2.573193 0.238006 -0.276649 -5.594759 -5.278402 -1.802367 8.665243 -7.105575 2.116506 3.655895 -3.470295 1.569447 0.000000 0.000000 0.000000 6.500737 3.015006 -36.907447 15.237092 -24.475417 3.323600 8.959503 -28.629738 -9.090125 0.000000 0.000000 0.000000 -7.125000 0.000000 0.000000 -15.452552 38.728907 -2.456594 0.000000 0.000000 0.000000 -1.566246 5.005621 19.520264 -15.326693 -24.599267 -3.360770 -4.862729 12.980997 -10.452673 0.000000 0.000000 0.000000 7.125000 0.000000 0.000000 15.613225 19.668390 9.815042
3.348300 17.772000 0.422350 -39.814553 88.543839 -39.483196 0.000000 0.000000 0.000000 0.000000 0.000000 0.000000 0.000000 0.000000 0.000000 0.000000 0.000000 0.000000 0.000000 0.000000 0.000000 0.000000 0.000000 0.000000 20.023903 1.487041 1.126714 -0.545249 -4.730796 13.142289 -0.748351 3.943982 -15.487013 -0.108290 2.120949 -5.840022 3.370097 0.313559 1.281359 -0.669648 0.459312 0.436797 -2.583447 0.232406 -0.238407 -5.651762 -5.279347 -1.728638 8.710314 -7.101345 1.976032 3.685608 -3.471498 1.514743 0.000000 0.000000 0.000000 6.507098 2.979689 -37.018959 15.196799 -24.419499 3.306850 8.971287 -28.780955 -9.136875 0.000000 0.000000 0.000000 -7.125000 0.000000 0.000000 -15.453867 38.775323 -2.438594 0.000000 0.000000 0.000000 -1.534321 4.907337 19.200213 -15.133854 -24.332205 -3.280852 -4.333101 13.749124 -10.623425 0.000000 0.000000 0.000000 7.125000 0.000000 0.000000 15.963386 19.518026 10.109415
3.345120 17.771949 0.421155 -41.498722 88.534694 -41.187089 0.000000 0.000000 0.000000 0.000000 0.000000 0.000000 0.000000 0.000000 0.000000 0.000000 0.000000 0.000000 0.000000 0.000000 0.000000 0.000000 0.000000 0.000000 20.051008 1.380041 1.093449 -0.548337 -4.743922 13.179604 -0.752480 4.026708 -15.523197 -0.133431 2.352876 -6.482042 3.500269 0.302444 1.313366 -0.713918 0.447626 0.391748 -2.702506 0.224698 -0.301999 -5.547036 -5.291863 -1.707320 8.663901 -7.126313 2.089828 3.648264 -3.482494 1.543015 0.000000 0.000000 0.000000 6.624809 3.208944 -37.236849 15.303108 -24.566680 3.350957 9.172770 -28.880878 -9.418601 0.000000 0.000000 0.000000 -7.125000 0.000000 0.000000 -15.352075 39.065087 -2.308868 0.000000 0.000000 0.000000 -1.385905 5.072889 19.235817 -15.209041 -24.436434 -3.311901 -3.980282 13.690797 -10.185314 0.000000 0.000000 0.000000 7.125000 0.000000 0.000000 16.246232 19.948582 10.139453
